<svg xmlns="http://www.w3.org/2000/svg" viewBox="0 0 200 120" fill="none" aria-hidden="true">
  <path fill="#fff" fill-opacity="0.88" stroke="#d4c4e0" stroke-width="1.3" stroke-linejoin="round"
    d="M40 88c0-16 13-29 29-29 1.8 0 3.5.2 5.2.6 4-11 14.3-18.6 26.8-18.6 15.6 0 28.2 12.6 28.2 28.2 0 .5 0 1-.1 1.5 10.2 2.6 17.8 11.8 17.8 22.8 0 13-10.5 23.5-23.5 23.5H58c-16.6 0-30-13.4-30-30 0-11.2 6.1-20.9 15.2-26Z"/>
  <circle cx="42" cy="92" r="4" fill="#b8dfd0" fill-opacity="0.65"/>
  <circle cx="158" cy="68" r="3.2" fill="#ffc9d9" fill-opacity="0.6"/>
</svg>
