<svg xmlns="http://www.w3.org/2000/svg" viewBox="0 0 180 100" fill="none" aria-hidden="true">
  <rect x="12" y="18" width="52" height="72" rx="8" fill="#fff" stroke="#c4b8f0" stroke-width="1.2" transform="rotate(-12 38 54)"/>
  <rect x="38" y="12" width="52" height="72" rx="8" fill="#fffefb" stroke="#b8dfd0" stroke-width="1.2" transform="rotate(4 64 48)"/>
  <rect x="68" y="20" width="52" height="72" rx="8" fill="#fff" stroke="#f4a6b8" stroke-width="1.2" transform="rotate(14 94 56)"/>
  <path fill="#e895a8" d="M64 44a33 0 0 1 5.5 1.7c0 2.2-2.2 4.3-5.5 6.7-3.3-2.4-5.5-4.5-5.5-6.7A3 3 0 0 1 64 44Z" transform="rotate(4 64 48)"/>
  <path fill="#7eb8a8" d="M118 52a2.5 2.5 0 0 1 4.6 1.4c0 1.8-1.8 3.6-4.6 5.6-2.8-2-4.6-3.8-4.6-5.6A2.5 2.5 0 0 1 118 52Z" transform="rotate(14 94 56)"/>
</svg>
